# xmcd CD database file
#
# Track frame offsets:
#	150
#	23813
#	57150
#	87875
#
# Disc length: 1771 seconds
#
# Revision: 2
# Processed by: cddbd v1.5.2PL0 Copyright (c) Steve Scherf et al.
# Submitted via: CDex 1.70beta2
#
DISCID=2606e904
DTITLE=Albert Ayler - Spiritual Unity
DYEAR=1964
DGENRE=Jazz
TTITLE0=Ghosts: First Variation
TTITLE1=The Wizard
TTITLE2=Spirits
TTITLE3=Ghosts: Second Variation
EXTD=Albert Ayler - tenor sax\nGary Peacock - bass\nSunny Murray - drums\n YEAR: 1964
EXTT0=
EXTT1=
EXTT2=
EXTT3=
PLAYORDER=
